# This file uses centimeters as units for non-parametric coordinates.

mtllib key.mtl
g default
v -1.163729 2.447129 0.272898
v -0.813252 2.447129 0.272898
v -0.813252 4.864708 0.272898
v -1.163729 4.864708 0.272898
v -1.163729 2.447129 -0.058974
v -1.163729 4.864708 -0.058974
v -0.989330 2.280702 0.397055
v -0.813252 2.278545 0.397054
v -0.813252 2.447129 -0.058974
v -0.813252 4.864708 -0.058974
v -0.816230 6.188931 0.272898
v -0.979096 6.358675 0.272898
v -1.073347 5.263474 0.272898
v -1.163729 0.977776 -0.058974
v -1.163729 0.977776 0.272898
v -1.653646 4.864708 -0.058974
v -1.653646 4.864708 0.272898
v -0.970173 1.152143 0.397055
v -0.681239 2.447129 0.272898
v -0.681239 2.447129 -0.058974
v -0.816230 6.188931 -0.058974
v -1.470625 5.263474 0.272898
v -1.350112 5.648759 0.272898
v -1.435683 5.724921 0.272898
v -1.435683 5.926917 0.272898
v -1.350112 5.998816 0.272898
v -1.193861 5.998816 0.272898
v -1.117835 5.926917 0.272898
v -1.117835 5.724921 0.272898
v -1.193861 5.648759 0.272898
v -1.653646 6.349741 0.272898
v -0.979096 6.358675 -0.058974
v -1.073347 5.263474 -0.058974
v -1.117231 0.977776 -0.004651
v -1.117231 0.977776 0.218574
v -1.653646 6.349741 -0.058974
v -1.193861 5.648759 -0.058974
v -1.117835 5.724921 -0.058974
v -1.117835 5.926917 -0.058974
v -1.193861 5.998816 -0.058974
v -1.350112 5.998816 -0.058974
v -1.435683 5.926917 -0.058974
v -1.435683 5.724921 -0.058974
v -1.350112 5.648759 -0.058974
v -1.470625 5.263474 -0.058974
v -1.819777 5.004672 -0.058974
v -1.819777 5.004672 0.272898
v -0.590874 1.159805 0.397055
v -0.602368 2.060161 0.397055
v -0.419806 2.161246 0.272898
v -0.419806 2.161246 -0.058974
v -1.825732 6.209777 0.272898
v -1.117231 0.261463 -0.004651
v -1.117231 0.261463 0.218574
v -1.825732 6.209777 -0.058974
v -0.416828 0.977776 -0.058974
v -0.416828 0.977776 0.272898
v -0.463326 0.977776 -0.004651
v -0.463326 0.977776 0.218574
v -0.463326 0.261463 -0.004651
v -0.463326 0.261463 0.218574
vt 0.714653 0.101731
vt 0.111093 0.629874
vt 0.714654 0.567031
vt 0.127328 0.243023
vt 0.495715 0.745351
vt 0.533190 0.364609
vt 0.141431 0.658007
vt 0.115105 0.663122
vt 0.477994 0.359177
vt 0.440519 0.739919
vt 0.555966 0.133203
vt 0.213951 0.856891
vt 0.204524 0.234982
vt 0.572872 0.752946
vt 0.174173 0.832598
vt 0.087431 0.635998
vt 0.457203 0.357130
vt 0.050831 0.040062
vt 0.420462 0.948515
vt 0.443480 0.977773
vt 0.073708 0.010641
vt 0.549485 0.123927
vt 0.710929 0.995835
vt 0.228405 0.210200
vt 0.691897 0.315994
vt 0.116951 0.842363
vt 0.089081 0.703020
vt 0.051333 0.692502
vt 0.691897 0.768421
vt 0.549853 0.986822
vt 0.180147 0.000977
vt 0.560588 0.011115
vt 0.710929 0.946717
vt 0.691898 0.849572
vt 0.093226 0.881261
vt 0.579124 0.967447
vt 0.714654 0.398630
vt 0.695622 0.852761
vt 0.102739 0.888070
vt 0.695623 0.901879
vt 0.710929 0.901879
vt 0.138078 0.061257
vt 0.507489 0.926850
vt 0.482881 0.924428
vt 0.113456 0.063821
vt 0.472023 0.911926
vt 0.102656 0.076399
vt 0.152742 0.071181
vt 0.522080 0.916853
vt 0.475154 0.880114
vt 0.105972 0.108229
vt 0.156057 0.103011
vt 0.525211 0.885041
vt 0.488307 0.869298
vt 0.119202 0.118982
vt 0.143823 0.116417
vt 0.512915 0.871720
vt 0.169138 0.175151
vt 0.537867 0.812910
vt 0.106534 0.181672
vt 0.475300 0.806752
vt 0.072090 0.248779
vt 0.596866 0.777563
vt 0.283602 0.309454
vt 0.283602 0.658154
vt 0.283602 0.372323
vt 0.336121 0.372323
vt 0.336121 0.658154
vt 0.336121 0.309454
vt 0.691897 0.476229
vt 0.714654 0.315994
vt 0.283602 0.436207
vt 0.336121 0.436207
vt 0.336121 0.594270
vt 0.283603 0.594270
vt 0.336121 0.576141
vt 0.283603 0.576142
vt 0.336121 0.453237
vt 0.283603 0.453237
vt 0.336121 0.544176
vt 0.283602 0.544176
vt 0.336121 0.485203
vt 0.283602 0.485203
vt 0.336121 0.526489
vt 0.283603 0.526489
vt 0.336121 0.501762
vt 0.283603 0.501762
vt 0.125758 0.999023
vt 0.710929 0.852761
vt 0.457606 0.000979
vt 0.446502 0.113790
vt 0.228405 0.978747
vt 0.714654 0.849573
vt 0.695622 0.946717
vt 0.438337 0.121625
vt 0.714654 0.768421
vt 0.420462 0.308055
vt 0.207750 0.866972
vt 0.695623 0.995835
vt 0.209561 0.020207
vt 0.714654 0.413840
vt 0.714654 0.460098
vt 0.691897 0.460098
vt 0.691897 0.741857
vt 0.714654 0.741858
vt 0.691897 0.301099
vt 0.714654 0.301099
vt 0.714654 0.999023
vt 0.691897 0.000977
vt 0.714654 0.476229
vt 0.691897 0.567031
vt 0.691897 0.732805
vt 0.714654 0.732805
vt 0.691897 0.267505
vt 0.714654 0.267505
vt 0.167694 0.623834
vt 0.691897 0.101731
vt 0.691897 0.398630
vt 0.691897 0.413840
vt 0.691898 0.999023
vt 0.714653 0.000977
vn 0.000000 0.000000 1.000000
vn 0.000000 0.000000 1.000000
vn 0.000000 0.000000 1.000000
vn 0.000000 0.000000 1.000000
vn -1.000000 0.000000 0.000000
vn -1.000000 0.000000 0.000000
vn -1.000000 0.000000 0.000000
vn -1.000000 0.000000 0.000000
vn 0.002443 0.596291 0.802765
vn 0.002443 0.596291 0.802765
vn 0.002239 0.596018 0.802968
vn 0.001951 0.595630 0.803256
vn 1.000000 0.000000 0.000000
vn 1.000000 0.000000 0.000000
vn 1.000000 0.000000 0.000000
vn 1.000000 0.000000 0.000000
vn 0.000000 0.000000 -1.000000
vn 0.000000 0.000000 -1.000000
vn 0.000000 0.000000 -1.000000
vn 0.000000 0.000000 -1.000000
vn -1.000000 0.000000 0.000000
vn -1.000000 0.000000 0.000000
vn -1.000000 0.000000 0.000000
vn -1.000000 0.000000 0.000000
vn 0.000000 -1.000000 0.000000
vn 0.000000 -1.000000 0.000000
vn 0.000000 -1.000000 0.000000
vn 0.000000 -1.000000 0.000000
vn 0.000000 0.000000 1.000000
vn 0.000002 0.000000 1.000000
vn -0.000000 0.000000 1.000000
vn 0.000000 1.000000 0.000000
vn 0.000000 1.000000 0.000000
vn 0.000000 1.000000 0.000000
vn 0.000000 1.000000 0.000000
vn 0.999998 0.002249 0.000000
vn 0.999998 0.002249 0.000000
vn 0.999998 0.002249 0.000000
vn 0.999998 0.002249 0.000000
vn 0.721572 0.692340 0.000000
vn 0.721572 0.692340 0.000000
vn 0.721572 0.692340 0.000000
vn 0.721572 0.692340 0.000000
vn 0.000000 -1.000000 0.000000
vn 0.000000 -1.000000 0.000000
vn 0.000000 -1.000000 0.000000
vn 0.000000 -1.000000 0.000000
vn -0.644307 -0.764767 0.000000
vn -0.644307 -0.764767 0.000000
vn -0.644307 -0.764767 0.000000
vn -0.644307 -0.764767 0.000000
vn 0.737958 0.674847 0.000000
vn 0.737958 0.674847 0.000000
vn 0.737958 0.674847 0.000000
vn 0.737958 0.674847 0.000000
vn -0.013243 0.999912 0.000000
vn -0.013243 0.999912 0.000000
vn -0.013243 0.999912 0.000000
vn -0.013243 0.999912 0.000000
vn 0.000000 0.000000 1.000000
vn 0.000000 0.000000 1.000000
vn 0.000000 0.000000 1.000000
vn 0.000000 0.000000 1.000000
vn 0.000000 -1.000000 0.000000
vn 0.000000 -1.000000 0.000000
vn 0.000000 -1.000000 0.000000
vn 0.000000 -1.000000 0.000000
vn 0.000000 -1.000000 0.000000
vn 0.000000 -1.000000 0.000000
vn 0.000000 -1.000000 0.000000
vn 0.000000 -1.000000 0.000000
vn -1.000000 0.000000 0.000000
vn -1.000000 0.000000 0.000000
vn -1.000000 0.000000 0.000000
vn -1.000000 0.000000 0.000000
vn 0.000000 0.000000 -1.000000
vn 0.000000 0.000000 -1.000000
vn 0.000000 0.000000 -1.000000
vn 0.000000 0.000000 -1.000000
vn -0.999988 -0.004942 0.000000
vn -0.999988 -0.004942 0.000000
vn -0.999988 -0.004942 0.000000
vn -0.999988 -0.004942 0.000000
vn 0.000000 0.000000 -1.000000
vn 0.000000 0.000000 -1.000000
vn 0.000000 0.000000 -1.000000
vn 0.000000 0.000000 -1.000000
vn 0.999997 0.002516 0.000000
vn 0.999997 0.002516 0.000000
vn 0.999997 0.002516 0.000000
vn 0.999997 0.002516 0.000000
vn -0.630982 0.775798 0.000000
vn -0.630982 0.775798 0.000000
vn -0.630982 0.775798 0.000000
vn -0.630982 0.775798 0.000000
vn 0.000000 0.000000 -1.000000
vn 0.000000 0.000000 -1.000000
vn 0.000000 0.000000 -1.000000
vn 0.000000 0.000000 -1.000000
vn 0.000000 0.000000 1.000000
vn 0.000000 0.000000 1.000000
vn 0.000000 0.000000 1.000000
vn 0.000000 0.000000 1.000000
vn 0.000000 -1.000000 0.000000
vn 0.000000 -1.000000 0.000000
vn 0.000000 -1.000000 0.000000
vn 0.000000 -1.000000 0.000000
vn 0.000000 -1.000000 0.000000
vn 0.000000 -1.000000 0.000000
vn 0.000000 -1.000000 0.000000
vn 0.000000 -1.000000 0.000000
vn 1.000000 0.000000 0.000000
vn 1.000000 0.000000 0.000000
vn 1.000000 0.000000 0.000000
vn 1.000000 0.000000 0.000000
vn 0.000000 -1.000000 0.000000
vn 0.000000 -1.000000 0.000000
vn 0.000000 -1.000000 0.000000
vn 0.000000 -1.000000 0.000000
vn -0.687111 -0.726552 0.000000
vn -0.687111 -0.726552 0.000000
vn -0.687111 -0.726552 0.000000
vn -0.687111 -0.726552 0.000000
vn 0.643291 -0.765622 0.000000
vn 0.643291 -0.765622 0.000000
vn 0.643291 -0.765622 0.000000
vn 0.643291 -0.765622 0.000000
vn -1.000000 0.000000 0.000000
vn -1.000000 0.000000 0.000000
vn -1.000000 0.000000 0.000000
vn -1.000000 0.000000 0.000000
vn 1.000000 0.000000 0.000000
vn 1.000000 0.000000 0.000000
vn 1.000000 0.000000 0.000000
vn 1.000000 0.000000 0.000000
vn -0.707740 0.706473 0.000000
vn -0.707740 0.706473 0.000000
vn -0.707740 0.706473 0.000000
vn -0.707740 0.706473 0.000000
vn 0.664845 0.746981 0.000000
vn 0.664845 0.746981 0.000000
vn 0.664845 0.746981 0.000000
vn 0.664845 0.746981 0.000000
vn 0.954401 -0.298527 0.000000
vn 0.954401 -0.298527 0.000000
vn 0.954401 -0.298527 0.000000
vn 0.954401 -0.298527 0.000000
vn -0.559321 -0.004124 0.828941
vn -0.559321 -0.004124 0.828941
vn -0.559321 -0.004124 0.828941
vn -0.559321 -0.004124 0.828941
vn 0.003890 -0.571802 0.820382
vn 0.003890 -0.571802 0.820382
vn 0.003890 -0.571802 0.820382
vn 0.003890 -0.571802 0.820382
vn 0.375449 0.351662 0.857539
vn 0.375449 0.351662 0.857539
vn 0.375449 0.351662 0.857539
vn 0.375449 0.351662 0.857539
vn 0.572037 0.003973 0.820219
vn 0.572037 0.003973 0.820219
vn 0.572037 0.003973 0.820218
vn 0.572037 0.003973 0.820219
vn 0.000000 0.593005 0.805199
vn -0.954401 -0.298528 0.000000
vn -0.954401 -0.298528 0.000000
vn -0.954401 -0.298528 0.000000
vn -0.954401 -0.298528 0.000000
vn 0.000000 1.000000 0.000000
vn 0.000000 1.000000 0.000000
vn 0.000000 1.000000 0.000000
vn 0.000000 1.000000 0.000000
vn 0.000000 0.000000 1.000000
vn 0.000000 0.000000 1.000000
vn 0.000000 0.000000 1.000000
vn 0.000000 0.000000 1.000000
vn -0.000000 0.000000 1.000000
vn -0.000000 0.000000 1.000000
vn -0.000000 0.000000 1.000000
vn -0.000000 0.000000 1.000000
vn -0.000000 0.000000 1.000000
vn -0.000000 0.000000 1.000000
vn 0.000000 0.000000 1.000000
vn 0.000000 0.000000 1.000000
vn 0.000000 0.000000 1.000000
vn 0.000000 0.000000 1.000000
vn -0.000000 0.000000 1.000000
vn 0.000000 0.000000 1.000000
vn -0.000000 0.000000 -1.000000
vn -0.000000 0.000000 -1.000000
vn -0.000000 0.000000 -1.000000
vn -0.000000 0.000000 -1.000000
vn 0.000000 0.000000 -1.000000
vn 0.000000 0.000000 -1.000000
vn 0.000000 0.000000 -1.000000
vn 0.000000 0.000000 -1.000000
vn -0.000000 0.000000 -1.000000
vn -0.000000 0.000000 -1.000000
vn 0.000000 0.000000 -1.000000
vn 0.000000 0.000000 -1.000000
vn 0.000000 0.000000 -1.000000
vn 0.000000 0.000000 -1.000000
vn 0.000000 0.000000 -1.000000
vn 0.000000 0.000000 1.000000
vn 0.000000 0.000000 1.000000
vn 0.000000 0.000000 -1.000000
vn 0.000000 0.000000 -1.000000
vn -0.000000 0.000000 1.000000
vn 0.000000 0.000000 -1.000000
vn 0.000000 0.000000 -1.000000
vn 0.000000 0.000000 -1.000000
vn 0.000000 0.000000 -1.000000
vn -0.000000 0.000000 -1.000000
vn 0.000000 0.000000 -1.000000
vn 0.000000 0.000000 -1.000000
vn 0.000000 0.000000 1.000000
vn 0.000000 0.000000 1.000000
vn 0.000000 0.000000 1.000000
vn 0.000000 0.000000 -1.000000
vn 0.000000 0.000000 -1.000000
vn -0.000000 0.000000 1.000000
vn -0.000000 0.000000 1.000000
s off
g Key
usemtl initialShadingGroup
f 1/116/1 2/2/2 3/62/3 4/4/4
f 1/1/5 4/115/6 6/114/7 5/117/8
s 1
f 1/116/9 7/7/10 8/8/11 2/2/12
s off
f 2/113/13 9/112/14 10/111/15 3/3/16
f 5/6/17 6/5/18 10/10/19 9/9/20
f 1/1/21 5/117/22 14/109/23 15/121/24
f 4/115/25 17/107/26 16/106/27 6/114/28
s 2
f 8/8/29 7/7/30 18/15/31
s off
f 2/113/32 19/105/33 20/104/34 9/112/35
f 11/110/36 3/3/37 10/111/38 21/70/39
f 11/110/40 21/70/41 32/103/42 12/102/43
f 14/120/44 34/99/45 35/23/46 15/108/47
f 16/106/48 17/107/49 47/71/50 46/25/51
f 19/105/52 50/96/53 51/29/54 20/104/55
f 12/102/56 32/103/57 36/119/58 31/101/59
f 47/24/60 17/13/61 31/31/62 52/100/63
f 34/22/64 14/11/65 56/95/66 58/91/67
f 15/12/68 35/98/69 59/39/70 57/35/71
f 34/99/72 53/94/73 54/33/74 35/23/75
f 16/14/76 46/63/77 55/36/78 36/30/79
f 55/118/80 46/25/81 47/71/82 52/37/83
s 3
f 56/95/84 9/9/85 20/17/86 51/97/87
s off
f 50/96/88 57/93/89 56/34/90 51/29/91
f 31/101/92 36/119/93 55/118/94 52/37/95
f 53/32/96 34/22/97 58/91/98 60/90/99
f 59/39/100 35/98/101 54/92/102 61/88/103
f 54/33/104 53/94/105 60/40/106 61/41/107
f 56/34/108 57/93/109 59/89/110 58/38/111
f 58/38/112 59/89/113 61/41/114 60/40/115
f 26/84/116 41/85/117 40/87/118 27/86/119
f 27/86/120 40/87/121 39/83/122 28/82/123
f 25/80/124 42/81/125 41/85/126 26/84/127
f 28/82/128 39/83/129 38/79/130 29/78/131
f 24/76/132 43/77/133 42/81/134 25/80/135
f 29/78/136 38/79/137 37/72/138 30/73/139
f 23/74/140 44/75/141 43/77/142 24/76/143
f 22/68/144 45/65/145 44/75/146 23/74/147
f 15/12/148 18/15/149 7/7/150 1/116/151
f 48/26/152 18/15/153 15/12/154 57/35/155
f 8/8/156 49/27/157 50/28/158 19/16/159
f 57/35/160 50/28/161 49/27/162 48/26/163
s 1
f 2/2/12 8/8/11 19/16/164
s off
f 13/67/165 30/73/166 37/72/167 33/66/168
f 45/64/169 22/69/170 13/67/171 33/66/172
f 12/21/173 31/31/174 26/42/175 27/45/176
s 4
f 11/18/177 28/47/178 29/51/179 3/62/180
f 28/47/178 11/18/177 12/21/181 27/45/182
s 5
f 24/52/183 17/13/184 22/58/185 23/56/186
s 4
f 3/62/180 13/60/187 4/4/188
s off
f 36/30/189 32/20/190 40/44/191 41/43/192
f 32/20/193 21/19/194 39/46/195 40/44/196
s 6
f 43/53/197 36/30/198 41/43/199 42/49/200
s 7
f 33/61/201 10/10/202 6/5/203
s 4
f 13/60/187 22/58/204 17/13/205 4/4/188
s 7
f 45/59/206 33/61/201 6/5/203 16/14/207
s 4
f 3/62/180 29/51/179 30/55/208 13/60/187
s 7
f 38/50/209 10/10/202 33/61/201 37/54/210
f 21/19/211 10/10/202 38/50/209 39/46/212
s 6
f 16/14/213 36/30/198 43/53/197
f 16/14/213 43/53/197 44/57/214 45/59/215
s 5
f 31/31/216 24/52/183 25/48/217 26/42/218
f 31/31/216 17/13/184 24/52/183
s 3
f 9/9/85 56/95/84 14/11/219 5/6/220
s 2
f 8/8/29 18/15/31 48/26/221 49/27/222
