# Blender 4.5.0
# www.blender.org
o Core_Export
v 0.032155 0.004606 0.000642
v 0.035191 0.003349 0.000642
v 0.036449 0.000312 0.000642
v 0.035191 -0.002724 0.000642
v 0.032155 -0.003982 0.000642
v 0.029119 -0.002724 0.000642
v 0.027861 0.000312 0.000642
v 0.029119 0.003349 0.000642
v 0.037105 0.005262 0.001000
v 0.039155 0.000312 0.001000
v 0.037105 -0.004637 0.001000
v 0.032155 -0.006688 0.001000
v 0.027205 -0.004637 0.001000
v 0.025155 0.000312 0.001000
v 0.027205 0.005262 0.001000
v 0.032155 0.007312 0.001000
v 0.032155 0.008312 0.000000
v 0.037812 0.005969 0.000000
v 0.037812 0.005969 0.001000
v 0.040155 0.000312 0.000000
v 0.040155 0.000312 0.001000
v 0.037812 -0.005344 0.000000
v 0.037812 -0.005344 0.001000
v 0.032155 -0.007688 0.000000
v 0.032155 -0.007688 0.001000
v 0.026498 -0.005344 0.000000
v 0.026498 -0.005344 0.001000
v 0.024155 0.000312 0.000000
v 0.024155 0.000312 0.001000
v 0.026498 0.005969 0.000000
v 0.026498 0.005969 0.001000
v 0.032155 0.008312 0.001000
v 0.032155 0.007312 0.000000
v 0.037105 0.005262 0.000000
v 0.039155 0.000312 0.000000
v 0.037105 -0.004637 0.000000
v 0.032155 -0.006688 0.000000
v 0.027205 -0.004637 0.000000
v 0.025155 0.000312 0.000000
v 0.027205 0.005262 0.000000
v 0.032155 0.004606 0.000000
v 0.035191 0.003349 0.000000
v 0.036449 0.000312 0.000000
v 0.035191 -0.002724 0.000000
v 0.032155 -0.003982 0.000000
v 0.029119 -0.002724 0.000000
v 0.027861 0.000312 0.000000
v 0.029119 0.003349 0.000000
v 0.032155 0.003973 0.080000
v 0.032155 0.007312 0.076915
v 0.034743 0.002901 0.080000
v 0.037105 0.005262 0.076915
v 0.035815 0.000312 0.080000
v 0.039155 0.000312 0.076915
v 0.034743 -0.002276 0.080000
v 0.037105 -0.004637 0.076915
v 0.032155 -0.003348 0.080000
v 0.032155 -0.006688 0.076915
v 0.029567 -0.002276 0.080000
v 0.027205 -0.004637 0.076915
v 0.028494 0.000312 0.080000
v 0.025155 0.000312 0.076915
v 0.029567 0.002901 0.080000
v 0.027205 0.005262 0.076915
vn -0.3827 -0.9239 -0.0000
vn -0.0000 -0.0000 -1.0000
vn 0.9239 0.3827 -0.0000
vn -0.9239 -0.3827 -0.0000
vn -0.9239 0.3827 -0.0000
vn -0.3827 0.9239 -0.0000
vn 0.3827 -0.9239 -0.0000
vn -0.0000 -0.0000 1.0000
vn 0.9239 -0.3827 -0.0000
vn 0.3827 0.9239 -0.0000
vn -0.0952 -0.2299 -0.9685
vn -0.2299 -0.0952 -0.9685
vn -0.2299 0.0952 -0.9685
vn -0.0952 0.2299 -0.9685
vn 0.0952 0.2299 -0.9685
vn 0.2299 0.0952 -0.9685
vn 0.2299 -0.0952 -0.9685
vn 0.0952 -0.2299 -0.9685
vn 0.2706 0.6533 0.7071
vn 0.6533 0.2706 0.7071
vn 0.6533 -0.2706 0.7071
vn 0.2706 -0.6533 0.7071
vn -0.2706 -0.6533 0.7071
vn -0.6533 -0.2706 0.7071
vn -0.6533 0.2706 0.7071
vn -0.2706 0.6533 0.7071
vt 0.435977 0.936965
vt 0.436463 0.934477
vt 0.436463 0.936965
vt 0.765985 0.582741
vt 0.762239 0.580432
vt 0.766521 0.582205
vt 0.924676 0.849567
vt 0.921809 0.792101
vt 0.924676 0.792101
vt 0.921530 0.008363
vt 0.924397 0.065828
vt 0.921530 0.065828
vt 0.924397 0.008363
vt 0.928453 0.065828
vt 0.917753 0.866293
vt 0.920621 0.923758
vt 0.917753 0.923758
vt 0.758492 0.590234
vt 0.757957 0.590770
vt 0.756940 0.586487
vt 0.894104 0.868920
vt 0.896972 0.926386
vt 0.894104 0.926386
vt 0.874207 0.951011
vt 0.874207 0.953132
vt 0.869087 0.951011
vt 0.937036 0.192540
vt 0.938796 0.196787
vt 0.934549 0.198546
vt 0.921809 0.849567
vt 0.917753 0.792101
vt 0.896972 0.868920
vt 0.901027 0.926386
vt 0.131440 0.879540
vt 0.130683 0.884175
vt 0.130683 0.879540
vt 0.131440 0.848347
vt 0.130683 0.851624
vt 0.130683 0.848347
vt 0.131440 0.851624
vt 0.130683 0.856259
vt 0.131440 0.856259
vt 0.130683 0.859536
vt 0.541202 0.987786
vt 0.541959 0.983152
vt 0.541959 0.987786
vt 0.364581 0.947211
vt 0.365338 0.943933
vt 0.365338 0.947211
vt 0.364581 0.943933
vt 0.365338 0.939298
vt 0.131440 0.876262
vt 0.130683 0.876262
vt 0.944376 0.439793
vt 0.943360 0.435510
vt 0.945133 0.439793
vt 0.933022 0.439793
vt 0.934795 0.435510
vt 0.933779 0.439793
vt 0.762239 0.583237
vt 0.764537 0.584189
vt 0.767537 0.586487
vt 0.765489 0.586487
vt 0.764537 0.588786
vt 0.765985 0.590234
vt 0.762239 0.591786
vt 0.762239 0.589738
vt 0.759940 0.588786
vt 0.758988 0.586487
vt 0.759940 0.584189
vt 0.758492 0.582741
vt 0.762239 0.581189
vt 0.436463 0.959697
vt 0.435977 0.957209
vt 0.436463 0.957209
vt 0.436463 0.980670
vt 0.435977 0.978182
vt 0.436463 0.978182
vt 0.436463 0.976423
vt 0.435977 0.976423
vt 0.453372 0.986663
vt 0.453858 0.988422
vt 0.453372 0.988422
vt 0.436463 0.938724
vt 0.435977 0.938724
vt 0.435977 0.955450
vt 0.436463 0.955450
vt 0.453858 0.984176
vt 0.453858 0.986663
vt 0.876542 0.950044
vt 0.872707 0.949511
vt 0.873675 0.947176
vt 0.870586 0.949511
vt 0.869619 0.947176
vt 0.866751 0.950044
vt 0.866751 0.954099
vt 0.869087 0.953132
vt 0.870586 0.954631
vt 0.869619 0.956967
vt 0.873675 0.956967
vt 0.872707 0.954631
vt 0.876542 0.954099
vt 0.920621 0.866293
vt 0.924677 0.923758
vt 0.435977 0.934477
vt 0.756183 0.586487
vt 0.766521 0.590770
vt 0.762239 0.592543
vt 0.757957 0.582205
vt 0.768294 0.586487
vt 0.928453 0.008363
vt 0.932790 0.196787
vt 0.932790 0.194300
vt 0.934549 0.192540
vt 0.938796 0.194300
vt 0.937036 0.198546
vt 0.917753 0.849567
vt 0.901027 0.868920
vt 0.131440 0.884175
vt 0.131440 0.859536
vt 0.541202 0.983152
vt 0.364581 0.939298
vt 0.943360 0.444075
vt 0.942824 0.443539
vt 0.942824 0.436046
vt 0.939077 0.445091
vt 0.939077 0.433737
vt 0.939077 0.434494
vt 0.939077 0.445848
vt 0.935331 0.443539
vt 0.934795 0.444075
vt 0.935331 0.436046
vt 0.435977 0.959697
vt 0.435977 0.980670
vt 0.453372 0.984176
vt 0.924677 0.866293
s 0
f 5/1/1 46/2/1 45/3/1
f 34/4/2 17/5/2 18/6/2
f 52/7/3 10/8/3 9/9/3
f 60/10/4 14/11/4 13/12/4
f 62/13/5 15/14/5 14/11/5
f 64/15/6 16/16/6 15/17/6
f 38/18/2 26/19/2 39/20/2
f 56/21/7 12/22/7 11/23/7
f 49/24/8 63/25/8 55/26/8
f 41/27/2 43/28/2 45/29/2
f 54/30/9 11/31/9 10/8/9
f 58/32/1 13/33/1 12/22/1
f 32/34/10 18/35/10 17/36/10
f 19/37/3 20/38/3 18/39/3
f 21/40/9 22/41/9 20/38/9
f 23/42/7 24/43/7 22/41/7
f 25/44/1 26/45/1 24/46/1
f 27/47/4 28/48/4 26/49/4
f 29/50/5 30/51/5 28/48/5
f 31/52/6 17/36/6 30/53/6
f 14/54/8 31/55/8 29/56/8
f 21/57/8 19/58/8 10/59/8
f 1/60/11 34/4/11 2/61/11
f 2/61/12 35/62/12 3/63/12
f 4/64/13 35/62/13 36/65/13
f 4/64/14 37/66/14 5/67/14
f 5/67/15 38/18/15 6/68/15
f 6/68/16 39/20/16 7/69/16
f 8/70/17 39/20/17 40/71/17
f 8/70/18 33/72/18 1/60/18
f 4/73/9 43/74/9 3/75/9
f 2/76/10 41/77/10 1/78/10
f 8/79/6 41/77/6 48/80/6
f 7/81/4 46/82/4 6/83/4
f 5/1/7 44/84/7 4/85/7
f 3/75/3 42/86/3 2/87/3
f 7/81/5 48/88/5 47/89/5
f 50/90/19 51/91/19 52/92/19
f 52/92/20 53/93/20 54/94/20
f 54/94/21 55/26/21 56/95/21
f 58/96/22 55/26/22 57/97/22
f 58/96/23 59/98/23 60/99/23
f 62/100/24 59/98/24 61/101/24
f 62/100/25 63/25/25 64/102/25
f 50/90/26 63/25/26 49/24/26
f 50/103/10 9/104/10 16/16/10
f 5/1/1 6/105/1 46/2/1
f 40/71/2 39/20/2 28/106/2
f 22/107/2 24/108/2 36/65/2
f 24/108/2 37/66/2 36/65/2
f 40/71/2 28/106/2 30/109/2
f 33/72/2 40/71/2 17/5/2
f 40/71/2 30/109/2 17/5/2
f 20/110/2 22/107/2 35/62/2
f 22/107/2 36/65/2 35/62/2
f 20/110/2 35/62/2 34/4/2
f 34/4/2 33/72/2 17/5/2
f 18/6/2 20/110/2 34/4/2
f 52/7/3 54/30/3 10/8/3
f 60/10/4 62/13/4 14/11/4
f 62/13/5 64/111/5 15/14/5
f 64/15/6 50/103/6 16/16/6
f 38/18/2 37/66/2 26/19/2
f 37/66/2 24/108/2 26/19/2
f 26/19/2 28/106/2 39/20/2
f 56/21/7 58/32/7 12/22/7
f 63/25/8 61/101/8 59/98/8
f 59/98/8 57/97/8 63/25/8
f 57/97/8 55/26/8 63/25/8
f 55/26/8 53/93/8 51/91/8
f 51/91/8 49/24/8 55/26/8
f 45/29/2 46/112/2 47/113/2
f 47/113/2 48/114/2 41/27/2
f 41/27/2 42/115/2 43/28/2
f 43/28/2 44/116/2 45/29/2
f 45/29/2 47/113/2 41/27/2
f 54/30/9 56/117/9 11/31/9
f 58/32/1 60/118/1 13/33/1
f 32/34/10 19/119/10 18/35/10
f 19/37/3 21/40/3 20/38/3
f 21/40/9 23/42/9 22/41/9
f 23/42/7 25/120/7 24/43/7
f 25/44/1 27/121/1 26/45/1
f 27/47/4 29/50/4 28/48/4
f 29/50/5 31/122/5 30/51/5
f 31/52/6 32/34/6 17/36/6
f 27/123/8 13/124/8 14/54/8
f 14/54/8 15/125/8 31/55/8
f 29/56/8 27/123/8 14/54/8
f 12/126/8 13/124/8 27/123/8
f 32/127/8 31/55/8 15/125/8
f 32/127/8 15/125/8 16/128/8
f 12/126/8 27/123/8 25/129/8
f 11/130/8 12/126/8 23/131/8
f 12/126/8 25/129/8 23/131/8
f 19/58/8 32/127/8 16/128/8
f 19/58/8 16/128/8 9/132/8
f 19/58/8 9/132/8 10/59/8
f 10/59/8 11/130/8 21/57/8
f 11/130/8 23/131/8 21/57/8
f 1/60/11 33/72/11 34/4/11
f 2/61/12 34/4/12 35/62/12
f 4/64/13 3/63/13 35/62/13
f 4/64/14 36/65/14 37/66/14
f 5/67/15 37/66/15 38/18/15
f 6/68/16 38/18/16 39/20/16
f 8/70/17 7/69/17 39/20/17
f 8/70/18 40/71/18 33/72/18
f 4/73/9 44/133/9 43/74/9
f 2/76/10 42/134/10 41/77/10
f 8/79/6 1/78/6 41/77/6
f 7/81/4 47/89/4 46/82/4
f 5/1/7 45/3/7 44/84/7
f 3/75/3 43/74/3 42/86/3
f 7/81/5 8/135/5 48/88/5
f 50/90/19 49/24/19 51/91/19
f 52/92/20 51/91/20 53/93/20
f 54/94/21 53/93/21 55/26/21
f 58/96/22 56/95/22 55/26/22
f 58/96/23 57/97/23 59/98/23
f 62/100/24 60/99/24 59/98/24
f 62/100/25 61/101/25 63/25/25
f 50/90/26 64/102/26 63/25/26
f 50/103/10 52/136/10 9/104/10
