# Blender 4.5.0
# www.blender.org
o healbox
v -0.033213 0.366682 0.032155
v 0.033213 0.366682 0.032155
v -0.033213 0.631399 0.032155
v 0.033213 0.631399 0.032155
v -0.033213 0.631399 -0.032155
v 0.033213 0.631399 -0.032155
v -0.033213 0.366682 -0.032155
v 0.033213 0.366682 -0.032155
v 0.132358 0.465828 0.032155
v 0.132358 0.532253 0.032155
v -0.132358 0.465828 0.032155
v -0.132358 0.532253 0.032155
v -0.132358 0.465828 -0.032155
v -0.132358 0.532253 -0.032155
v 0.132358 0.465828 -0.032155
v 0.132358 0.532253 -0.032155
v 0.047695 0.209045 -0.082610
v -0.047695 0.209045 -0.082610
v -0.095390 0.209045 -0.000000
v -0.047695 0.209045 0.082610
v 0.047695 0.209045 0.082610
v 0.095390 0.209045 -0.000000
v 0.000000 0.309250 -0.000000
v 0.033710 0.276337 -0.058387
v 0.067419 0.276337 -0.000000
v 0.033710 0.276337 0.058387
v -0.033710 0.276337 0.058387
v -0.067419 0.276337 -0.000000
v -0.033710 0.276337 -0.058387
v 0.119105 0.238209 0.238209
v -0.119105 0.238209 0.238209
v 0.119105 -0.238209 0.238209
v -0.119105 -0.238209 0.238209
v 0.119105 -0.238209 -0.238209
v -0.119105 -0.238209 -0.238209
v 0.119105 0.238209 -0.238209
v -0.119105 0.238209 -0.238209
v 0.238209 0.119105 0.238209
v 0.238209 -0.119105 0.238209
v -0.238209 0.119105 0.238209
v -0.238209 -0.119105 0.238209
v 0.238209 -0.238209 0.119105
v 0.238209 -0.238209 -0.119105
v -0.238209 -0.238209 0.119105
v -0.238209 -0.238209 -0.119105
v 0.238209 -0.119105 -0.238209
v 0.238209 0.119105 -0.238209
v -0.238209 -0.119105 -0.238209
v -0.238209 0.119105 -0.238209
v 0.238209 0.238209 -0.119105
v 0.238209 0.238209 0.119105
v -0.238209 0.238209 -0.119105
v -0.238209 0.238209 0.119105
v 0.100391 0.238209 0.107309
v 0.100391 0.238209 -0.107309
v -0.100391 0.238209 -0.107309
v -0.100391 0.238209 0.107309
v 0.100391 0.213950 0.107309
v 0.100391 0.213950 -0.107309
v -0.100391 0.213950 -0.107309
v -0.100391 0.213950 0.107309
vn -0.0000 -0.0000 1.0000
vn -0.0000 1.0000 -0.0000
vn -0.0000 -0.0000 -1.0000
vn -0.0000 -1.0000 -0.0000
vn 1.0000 -0.0000 -0.0000
vn -1.0000 -0.0000 -0.0000
vn 0.4617 0.3838 -0.7997
vn -0.4617 0.3838 -0.7997
vn -0.4289 0.5142 -0.7428
vn 0.4288 0.5142 -0.7428
vn -0.9234 0.3838 -0.0000
vn -0.8577 0.5142 -0.0000
vn -0.4617 0.3838 0.7997
vn -0.4288 0.5142 0.7428
vn 0.4617 0.3838 0.7997
vn 0.4289 0.5142 0.7428
vn 0.9234 0.3838 -0.0000
vn 0.8577 0.5142 -0.0000
vn 0.5774 0.5774 0.5774
vn -0.5774 0.5774 0.5774
vn 0.5774 -0.5774 0.5774
vn -0.5774 -0.5774 0.5774
vn 0.5774 -0.5774 -0.5774
vn -0.5774 -0.5774 -0.5774
vn 0.5774 0.5774 -0.5774
vn -0.5774 0.5774 -0.5774
vt 0.864790 0.000011
vt 0.899842 0.000015
vt 0.899829 0.139704
vt 0.864777 0.139701
vt 0.996464 0.033945
vt 0.996461 0.068998
vt 0.962525 0.068994
vt 0.962528 0.033942
vt 0.830840 0.139697
vt 0.795788 0.139694
vt 0.795801 0.000005
vt 0.830854 0.000008
vt 0.935998 0.000009
vt 0.971051 0.000005
vt 0.971055 0.033941
vt 0.936003 0.033946
vt 0.933778 0.000018
vt 0.933765 0.139707
vt 0.935480 0.173643
vt 0.935479 0.208696
vt 0.795790 0.208692
vt 0.795791 0.173640
vt 0.971054 0.102932
vt 0.936001 0.102935
vt 0.935998 0.068999
vt 0.971051 0.068995
vt 0.795788 0.277681
vt 0.795789 0.242628
vt 0.935478 0.242632
vt 0.935477 0.277684
vt 0.511583 0.000005
vt 0.546636 0.000010
vt 0.546630 0.033946
vt 0.511578 0.033941
vt 0.935481 0.139707
vt 0.795792 0.139704
vt 0.469894 0.289649
vt 0.506078 0.227221
vt 0.527141 0.258054
vt 0.507130 0.286768
vt 0.578145 0.227339
vt 0.561997 0.261015
vt 0.614111 0.289757
vt 0.576878 0.292668
vt 0.578053 0.352129
vt 0.556880 0.321361
vt 0.505991 0.352144
vt 0.522017 0.318422
vt 0.542001 0.289710
vt 0.211299 0.508395
vt 0.275922 0.456420
vt 0.278645 0.565952
vt 0.278058 0.798952
vt 0.211667 0.751069
vt 0.278421 0.691837
vt 0.024160 0.456572
vt 0.088669 0.510811
vt 0.019952 0.566785
vt 0.090810 0.751458
vt 0.024252 0.799184
vt 0.022031 0.694291
vt 0.088735 0.270974
vt 0.021514 0.323384
vt 0.021985 0.212780
vt 0.000000 0.000005
vt 0.086900 0.023130
vt 0.023012 0.086416
vt 0.279057 0.323936
vt 0.212003 0.269589
vt 0.280411 0.213694
vt 0.604657 0.000179
vt 0.605006 0.251582
vt 0.542068 0.188818
vt 0.541894 0.063117
vt 0.214845 0.023248
vt 0.301665 0.000000
vt 0.278947 0.086662
vt 0.280214 0.929887
vt 0.217122 1.000000
vt 0.539398 0.062478
vt 0.287999 0.063981
vt 0.350473 0.000756
vt 0.476172 0.000005
vt 0.793471 0.188469
vt 0.730707 0.251407
vt 0.730358 0.000005
vt 0.793296 0.062768
vt 0.351976 0.252154
vt 0.288751 0.189681
vt 0.540149 0.188178
vt 0.477676 0.251403
vt 0.795364 0.357418
vt 0.682111 0.357426
vt 0.682104 0.251475
vt 0.795357 0.251467
vt 0.083306 0.995506
vt 0.020887 0.926978
vt 0.357766 0.179393
vt 0.471017 0.178716
vt 0.357132 0.073443
vt 0.470383 0.072766
vt 0.499625 0.370209
vt 0.386372 0.370198
vt 0.386373 0.357396
vt 0.499626 0.357408
vt 0.280421 0.370187
vt 0.280422 0.357386
vt 0.718829 0.370231
vt 0.605576 0.370220
vt 0.605577 0.357419
vt 0.718830 0.357430
s 1
f 1/1/1 2/2/1 4/3/1 3/4/1
f 3/5/2 4/6/2 6/7/2 5/8/2
f 5/9/3 6/10/3 8/11/3 7/12/3
f 7/13/4 8/14/4 2/15/4 1/16/4
f 2/2/5 8/17/5 6/18/5 4/3/5
f 7/12/6 1/1/6 3/4/6 5/9/6
f 9/19/1 10/20/1 12/21/1 11/22/1
f 11/23/6 12/24/6 14/25/6 13/26/6
f 13/27/3 14/28/3 16/29/3 15/30/3
f 15/31/5 16/32/5 10/33/5 9/34/5
f 10/20/2 16/29/2 14/28/2 12/21/2
f 15/35/4 9/19/4 11/22/4 13/36/4
f 17/37/7 18/38/8 29/39/9 24/40/10
f 18/38/8 19/41/11 28/42/12 29/39/9
f 19/41/11 20/43/13 27/44/14 28/42/12
f 20/43/13 21/45/15 26/46/16 27/44/14
f 21/45/15 22/47/17 25/48/18 26/46/16
f 22/47/17 17/37/7 24/40/10 25/48/18
f 23/49/2 24/40/10 29/39/9
f 23/49/2 29/39/9 28/42/12
f 23/49/2 28/42/12 27/44/14
f 23/49/2 27/44/14 26/46/16
f 23/49/2 26/46/16 25/48/18
f 23/49/2 25/48/18 24/40/10
f 38/50/19 51/51/19 30/52/19
f 53/53/20 40/54/20 31/55/20
f 42/56/21 39/57/21 32/58/21
f 41/59/22 44/60/22 33/61/22
f 46/62/23 43/63/23 34/64/23
f 33/61/1 31/55/1 40/54/1 41/59/1
f 45/65/24 48/66/24 35/67/24
f 50/68/25 47/69/25 36/70/25
f 35/71/4 33/72/4 44/73/4 45/74/4
f 49/75/26 52/76/26 37/77/26
f 46/62/5 39/57/5 42/56/5 43/63/5
f 40/54/6 53/53/6 52/78/6 49/79/6
f 31/80/2 37/81/2 52/82/2 53/83/2
f 36/70/3 34/64/3 35/67/3 37/77/3
f 42/84/4 32/85/4 34/86/4 43/87/4
f 34/86/4 32/85/4 33/72/4 35/71/4
f 38/50/1 30/52/1 32/58/1 39/57/1
f 32/58/1 30/52/1 31/55/1 33/61/1
f 50/88/2 36/89/2 30/90/2 51/91/2
f 58/92/2 59/93/2 60/94/2 61/95/2
f 46/62/3 34/64/3 36/70/3 47/69/3
f 37/77/3 35/67/3 48/66/3 49/75/3
f 47/69/5 50/68/5 51/51/5 38/50/5
f 47/69/5 38/50/5 39/57/5 46/62/5
f 41/59/6 48/96/6 45/97/6 44/60/6
f 40/54/6 49/79/6 48/96/6 41/59/6
f 30/90/2 36/89/2 55/98/2 54/99/2
f 36/89/2 37/81/2 56/100/2 55/98/2
f 37/81/2 31/80/2 57/101/2 56/100/2
f 31/80/2 30/90/2 54/99/2 57/101/2
f 54/102/6 55/103/6 59/104/6 58/105/6
f 55/103/1 56/106/1 60/107/1 59/104/1
f 56/108/5 57/109/5 61/110/5 60/111/5
f 57/109/3 54/102/3 58/105/3 61/110/3
